<mxfile host="65bd71144e">
    <diagram id="OI1CbE9Jq7gKncJ1jP09" name="Page-1">
        <mxGraphModel dx="1169" dy="384" grid="1" gridSize="10" guides="1" tooltips="1" connect="1" arrows="1" fold="1" page="1" pageScale="1" pageWidth="850" pageHeight="1100" background="none" math="0" shadow="0">
            <root>
                <mxCell id="0"/>
                <mxCell id="1" parent="0"/>
                <mxCell id="2" value="" style="rounded=0;whiteSpace=wrap;html=1;" parent="1" vertex="1">
                    <mxGeometry x="20" y="320" width="755" height="670" as="geometry"/>
                </mxCell>
                <mxCell id="11" value="" style="rounded=0;whiteSpace=wrap;html=1;align=left;imageVerticalAlign=top;sketch=0;glass=0;verticalAlign=top;" parent="1" vertex="1">
                    <mxGeometry x="85" y="410" width="330" height="330" as="geometry"/>
                </mxCell>
                <mxCell id="3" value="stdout (somehow...)" style="rounded=0;whiteSpace=wrap;html=1;" parent="1" vertex="1">
                    <mxGeometry x="30" y="810" width="725" height="160" as="geometry"/>
                </mxCell>
                <mxCell id="7" value="Add Project Data from File" style="rounded=1;whiteSpace=wrap;html=1;align=center;" parent="1" vertex="1">
                    <mxGeometry x="130" y="330" width="200" height="40" as="geometry"/>
                </mxCell>
                <mxCell id="17" value="" style="rounded=0;whiteSpace=wrap;html=1;glass=0;labelBackgroundColor=#2a2a2a;sketch=0;fontColor=none;" parent="1" vertex="1">
                    <mxGeometry x="20" y="260" width="755" height="60" as="geometry"/>
                </mxCell>
                <mxCell id="31" style="edgeStyle=none;html=1;entryX=0.5;entryY=1;entryDx=0;entryDy=0;fontColor=none;" parent="1" source="18" target="29" edge="1">
                    <mxGeometry relative="1" as="geometry">
                        <Array as="points">
                            <mxPoint x="140" y="290"/>
                        </Array>
                    </mxGeometry>
                </mxCell>
                <mxCell id="18" value="File" style="text;html=1;align=center;verticalAlign=middle;whiteSpace=wrap;rounded=0;glass=0;labelBackgroundColor=#2a2a2a;sketch=0;strokeColor=default;dashed=1;" parent="1" vertex="1">
                    <mxGeometry x="40" y="275" width="60" height="30" as="geometry"/>
                </mxCell>
                <mxCell id="22" value="" style="rounded=0;whiteSpace=wrap;html=1;align=left;imageVerticalAlign=top;sketch=0;glass=0;verticalAlign=top;" parent="1" vertex="1">
                    <mxGeometry x="425" y="410" width="330" height="330" as="geometry"/>
                </mxCell>
                <mxCell id="26" value="Baseline Building" style="rounded=0;whiteSpace=wrap;html=1;" parent="1" vertex="1">
                    <mxGeometry x="85" y="380" width="330" height="30" as="geometry"/>
                </mxCell>
                <mxCell id="27" value="Proposed Building" style="rounded=0;whiteSpace=wrap;html=1;" parent="1" vertex="1">
                    <mxGeometry x="425" y="380" width="330" height="30" as="geometry"/>
                </mxCell>
                <mxCell id="29" value="New Project...&lt;br&gt;Open...&lt;br&gt;Save...&lt;br&gt;Save As...&lt;br&gt;Close" style="text;html=1;align=center;verticalAlign=middle;whiteSpace=wrap;rounded=0;glass=0;labelBackgroundColor=#2a2a2a;sketch=0;strokeColor=default;" parent="1" vertex="1">
                    <mxGeometry x="60" y="130" width="160" height="80" as="geometry"/>
                </mxCell>
                <mxCell id="32" value="Segment A&lt;br&gt;Name&lt;br&gt;Constuction Type&lt;br&gt;&amp;lt;Preview of Data&amp;gt;" style="rounded=0;whiteSpace=wrap;html=1;" parent="1" vertex="1">
                    <mxGeometry x="105" y="430" width="290" height="90" as="geometry"/>
                </mxCell>
                <mxCell id="34" value="Segment A&lt;br&gt;Name&lt;br&gt;Constuction Type&lt;br&gt;&amp;lt;Preview of Data&amp;gt;" style="rounded=0;whiteSpace=wrap;html=1;" parent="1" vertex="1">
                    <mxGeometry x="445" y="430" width="290" height="90" as="geometry"/>
                </mxCell>
                <mxCell id="37" value="-" style="ellipse;whiteSpace=wrap;html=1;rounded=0;glass=0;labelBackgroundColor=#2a2a2a;sketch=0;strokeColor=default;" parent="1" vertex="1">
                    <mxGeometry x="235" y="510" width="20" height="20" as="geometry"/>
                </mxCell>
                <mxCell id="39" value="&lt;i&gt;Create New Building Segment from File&lt;/i&gt;" style="rounded=0;whiteSpace=wrap;html=1;dashed=1;" parent="1" vertex="1">
                    <mxGeometry x="105" y="540" width="290" height="90" as="geometry"/>
                </mxCell>
                <mxCell id="40" value="&lt;i&gt;Create New Building Segment from File&lt;/i&gt;" style="rounded=0;whiteSpace=wrap;html=1;dashed=1;" parent="1" vertex="1">
                    <mxGeometry x="445" y="540" width="290" height="90" as="geometry"/>
                </mxCell>
                <mxCell id="41" value="+" style="ellipse;whiteSpace=wrap;html=1;rounded=0;glass=0;labelBackgroundColor=#2a2a2a;sketch=0;strokeColor=default;" parent="1" vertex="1">
                    <mxGeometry x="580" y="615" width="20" height="20" as="geometry"/>
                </mxCell>
                <mxCell id="42" value="-" style="ellipse;whiteSpace=wrap;html=1;rounded=0;glass=0;labelBackgroundColor=#2a2a2a;sketch=0;strokeColor=default;" parent="1" vertex="1">
                    <mxGeometry x="580" y="510" width="20" height="20" as="geometry"/>
                </mxCell>
                <mxCell id="43" value="+" style="ellipse;whiteSpace=wrap;html=1;rounded=0;glass=0;labelBackgroundColor=#2a2a2a;sketch=0;strokeColor=default;" parent="1" vertex="1">
                    <mxGeometry x="235" y="615" width="20" height="20" as="geometry"/>
                </mxCell>
                <mxCell id="45" value="" style="endArrow=none;dashed=1;html=1;strokeWidth=4;fontColor=none;fillColor=#d80073;strokeColor=#A50040;dashPattern=1 1;exitX=-0.001;exitY=0.636;exitDx=0;exitDy=0;exitPerimeter=0;" parent="1" edge="1" source="2">
                    <mxGeometry width="50" height="50" relative="1" as="geometry">
                        <mxPoint x="-70" y="748" as="sourcePoint"/>
                        <mxPoint x="790" y="748" as="targetPoint"/>
                    </mxGeometry>
                </mxCell>
                <mxCell id="46" value="" style="endArrow=none;dashed=1;html=1;strokeWidth=4;fontColor=none;fillColor=#d80073;strokeColor=#A50040;dashPattern=1 1;" parent="1" edge="1">
                    <mxGeometry width="50" height="50" relative="1" as="geometry">
                        <mxPoint x="20" y="375" as="sourcePoint"/>
                        <mxPoint x="790" y="375" as="targetPoint"/>
                    </mxGeometry>
                </mxCell>
                <mxCell id="47" value="" style="endArrow=none;dashed=1;html=1;strokeWidth=4;fontColor=none;fillColor=#d80073;strokeColor=#A50040;dashPattern=1 1;" parent="1" edge="1">
                    <mxGeometry width="50" height="50" relative="1" as="geometry">
                        <mxPoint x="420" y="745" as="sourcePoint"/>
                        <mxPoint x="420" y="370" as="targetPoint"/>
                    </mxGeometry>
                </mxCell>
                <mxCell id="48" value="" style="endArrow=none;dashed=1;html=1;strokeWidth=4;fontColor=none;fillColor=#d80073;strokeColor=#A50040;dashPattern=1 1;" parent="1" edge="1">
                    <mxGeometry width="50" height="50" relative="1" as="geometry">
                        <mxPoint x="-60" y="324" as="sourcePoint"/>
                        <mxPoint x="920" y="324.09000000000003" as="targetPoint"/>
                    </mxGeometry>
                </mxCell>
                <mxCell id="49" value="" style="endArrow=none;dashed=1;html=1;strokeWidth=4;fontColor=none;fillColor=#d80073;strokeColor=#A50040;dashPattern=1 1;" parent="1" edge="1">
                    <mxGeometry width="50" height="50" relative="1" as="geometry">
                        <mxPoint x="-48" y="980" as="sourcePoint"/>
                        <mxPoint x="907" y="980" as="targetPoint"/>
                    </mxGeometry>
                </mxCell>
                <mxCell id="50" value="Export NYSERDA Report" style="rounded=1;whiteSpace=wrap;html=1;align=center;" vertex="1" parent="1">
                    <mxGeometry x="320" y="760" width="200" height="30" as="geometry"/>
                </mxCell>
                <mxCell id="51" value="" style="endArrow=none;dashed=1;html=1;strokeWidth=4;fontColor=none;fillColor=#d80073;strokeColor=#A50040;dashPattern=1 1;" edge="1" parent="1">
                    <mxGeometry width="50" height="50" relative="1" as="geometry">
                        <mxPoint x="-57.5" y="797" as="sourcePoint"/>
                        <mxPoint x="897.5" y="797" as="targetPoint"/>
                    </mxGeometry>
                </mxCell>
                <mxCell id="52" value="" style="endArrow=none;dashed=1;html=1;strokeWidth=4;fontColor=none;fillColor=#d80073;strokeColor=#A50040;dashPattern=1 1;" edge="1" parent="1">
                    <mxGeometry width="50" height="50" relative="1" as="geometry">
                        <mxPoint x="74" y="800.8333129882812" as="sourcePoint"/>
                        <mxPoint x="74" y="320" as="targetPoint"/>
                    </mxGeometry>
                </mxCell>
                <mxCell id="53" value="1" style="text;html=1;align=center;verticalAlign=middle;resizable=0;points=[];autosize=1;strokeColor=none;fillColor=none;fontSize=36;" vertex="1" parent="1">
                    <mxGeometry x="27" y="323" width="40" height="50" as="geometry"/>
                </mxCell>
                <mxCell id="54" value="2" style="text;html=1;align=center;verticalAlign=middle;resizable=0;points=[];autosize=1;strokeColor=none;fillColor=none;fontSize=36;" vertex="1" parent="1">
                    <mxGeometry x="27" y="530" width="40" height="50" as="geometry"/>
                </mxCell>
                <mxCell id="55" value="3" style="text;html=1;align=center;verticalAlign=middle;resizable=0;points=[];autosize=1;strokeColor=none;fillColor=none;fontSize=36;" vertex="1" parent="1">
                    <mxGeometry x="27" y="748" width="40" height="50" as="geometry"/>
                </mxCell>
            </root>
        </mxGraphModel>
    </diagram>
</mxfile>